<?xml version="1.0" encoding="UTF-8"?>
<svg version="1.1" xmlns="http://www.w3.org/2000/svg" width="491" height="98">
<path d="M0 0 C1.83498047 -0.03867187 1.83498047 -0.03867187 3.70703125 -0.078125 C7.44181539 0.27397586 9.23847895 0.98396587 12.1875 3.25 C12.8475 4.24 13.5075 5.23 14.1875 6.25 C16.53076986 6.48270005 16.53076986 6.48270005 18.6875 3.8125 C19.5125 2.966875 20.3375 2.12125 21.1875 1.25 C24.11210429 -0.21230215 26.74402824 0.04091273 30 0 C31.83498047 -0.03867187 31.83498047 -0.03867187 33.70703125 -0.078125 C38.60939035 0.38405027 41.08768277 2.05591272 44.375 5.625 C47.78210355 10.55942582 48.46087239 14.59347213 48.63671875 20.5625 C48.65845657 21.25384033 48.6801944 21.94518066 48.70259094 22.6574707 C48.74632519 24.1129926 48.78556555 25.56865573 48.82055664 27.02441406 C48.87483669 29.24332404 48.94509001 31.46130551 49.01757812 33.6796875 C49.18115352 39.38907701 49.31563657 44.60931713 48.1875 50.25 C42.9075 50.25 37.6275 50.25 32.1875 50.25 C32.16171875 47.98640625 32.1359375 45.7228125 32.109375 43.390625 C32.07093709 41.19290857 32.02578293 38.99542539 31.97998047 36.79785156 C31.95179465 35.27322569 31.93056811 33.74845434 31.91650391 32.22363281 C31.89503951 30.02854064 31.84837831 27.83519289 31.796875 25.640625 C31.77592773 24.32094727 31.75498047 23.00126953 31.73339844 21.64160156 C31.4491419 18.20234084 31.4491419 18.20234084 29.34472656 15.78808594 C27.20498833 13.94763509 27.20498833 13.94763509 24.0625 14.25 C21.16529083 14.94815439 21.16529083 14.94815439 20.01171875 16.890625 C18.91390515 20.03318146 19.03578142 22.67393123 19.125 26 C19.24462683 34.14259988 18.76272239 42.12498373 18.1875 50.25 C12.9075 50.25 7.6275 50.25 2.1875 50.25 C2.13851562 48.05859375 2.08953125 45.8671875 2.0390625 43.609375 C1.98501398 41.48121458 1.92772184 39.35316443 1.87011719 37.22509766 C1.83189334 35.74894464 1.79702897 34.27270057 1.765625 32.79638672 C1.71983014 30.67121906 1.66186163 28.54667458 1.6015625 26.421875 C1.55443115 24.5052002 1.55443115 24.5052002 1.50634766 22.54980469 C1.21212849 19.50488409 0.95541127 17.7174445 -0.8125 15.25 C-4.03505016 14.19916843 -5.86565754 13.79940329 -8.96972656 15.27661133 C-11.65663165 18.15396345 -11.41536276 21.01779279 -11.421875 24.76171875 C-11.43841125 25.48994339 -11.45494751 26.21816803 -11.47198486 26.96846008 C-11.52052197 29.29155865 -11.54184669 31.6140025 -11.5625 33.9375 C-11.59065518 35.51370492 -11.62058199 37.08987926 -11.65234375 38.66601562 C-11.72961704 42.52764641 -11.77007496 46.38720011 -11.8125 50.25 C-17.4225 50.25 -23.0325 50.25 -28.8125 50.25 C-28.8125 34.08 -28.8125 17.91 -28.8125 1.25 C-24.5225 1.25 -20.2325 1.25 -15.8125 1.25 C-15.1525 2.57 -14.4925 3.89 -13.8125 5.25 C-13.02875 4.610625 -12.245 3.97125 -11.4375 3.3125 C-7.39038459 0.1326236 -5.13446866 0.06451688 0 0 Z " fill="#5872F8" transform="translate(145.8125,24.75)"/>
<path d="M0 0 C3.86822962 1.39532568 5.71633148 3.57449722 8 7 C8.40347656 6.4946875 8.80695313 5.989375 9.22265625 5.46875 C12.47635108 1.98708929 14.85462833 0.20241482 19.625 -0.640625 C30.49086171 -0.94245449 30.49086171 -0.94245449 35.1875 1.8125 C41.30279661 7.87817522 42.34155833 16.28703762 42.390625 24.51171875 C42.37881676 27.57145882 42.31791216 30.62856958 42.25 33.6875 C42.22989014 35.27536792 42.21164735 36.86326063 42.1953125 38.45117188 C42.15513786 42.30191077 42.07680403 46.14913117 42 50 C36.72 50 31.44 50 26 50 C25.95101562 47.97617188 25.90203125 45.95234375 25.8515625 43.8671875 C25.7959025 41.89125748 25.74017612 39.91532874 25.68261719 37.93945312 C25.64450798 36.57398079 25.60962464 35.20841423 25.578125 33.84277344 C25.53208122 31.87152393 25.47318951 29.90058796 25.4140625 27.9296875 C25.3826416 26.74616699 25.3512207 25.56264648 25.31884766 24.34326172 C24.99584232 20.95640484 24.20350799 18.17134912 23 15 C18.75486353 13.89819342 18.75486353 13.89819342 14.6875 15.125 C11.37678706 18.80356993 11.83519744 23.87025149 11.68359375 28.61328125 C11.62075195 30.4840332 11.62075195 30.4840332 11.55664062 32.39257812 C11.51732422 33.68615234 11.47800781 34.97972656 11.4375 36.3125 C11.37272461 38.28186523 11.37272461 38.28186523 11.30664062 40.29101562 C11.20072832 43.52722482 11.09987581 46.76359889 11 50 C5.72 50 0.44 50 -5 50 C-5.02578125 47.73640625 -5.0515625 45.4728125 -5.078125 43.140625 C-5.11656291 40.94290857 -5.16171707 38.74542539 -5.20751953 36.54785156 C-5.23570535 35.02322569 -5.25693189 33.49845434 -5.27099609 31.97363281 C-5.29246049 29.77854064 -5.33912169 27.58519289 -5.390625 25.390625 C-5.41157227 24.07094727 -5.43251953 22.75126953 -5.45410156 21.39160156 C-5.73878959 17.95208687 -5.73878959 17.95208687 -7.84277344 15.53417969 C-9.98342539 13.68926245 -9.98342539 13.68926245 -13.125 14.0625 C-16.29174932 14.76694687 -16.29174932 14.76694687 -18 18 C-18.23965047 20.46384903 -18.37242 22.82540576 -18.4140625 25.29296875 C-18.43342865 25.99899734 -18.4527948 26.70502594 -18.4727478 27.43244934 C-18.53245224 29.68401061 -18.5788914 31.93562328 -18.625 34.1875 C-18.66318829 35.71551689 -18.70224052 37.24351245 -18.7421875 38.77148438 C-18.83977081 42.51421092 -18.91940802 46.25671463 -19 50 C-24.28 50 -29.56 50 -35 50 C-35.16852354 44.30764916 -35.32898066 38.61514726 -35.48217773 32.92236328 C-35.53533392 30.9883828 -35.59064011 29.0544601 -35.64819336 27.12060547 C-35.73084628 24.33053037 -35.805599 21.54033445 -35.87890625 18.75 C-35.91945885 17.466698 -35.91945885 17.466698 -35.96083069 16.1574707 C-36.08753186 10.98605653 -35.76612498 6.11781802 -35 1 C-30.71 1 -26.42 1 -22 1 C-21.67 2.32 -21.34 3.64 -21 5 C-20.21625 4.360625 -19.4325 3.72125 -18.625 3.0625 C-13.04833084 -1.31916862 -6.86619897 -0.57738491 0 0 Z " fill="#5872F9" transform="translate(295,25)"/>
<path d="M0 0 C11.37103437 6.52611784 19.45904387 16.04727181 26.8125 26.6875 C20.89725246 39.64656205 9.71143939 50.29841077 -3.1875 56.1875 C-11.59208524 59.16163443 -19.37900536 58.3154259 -27.5546875 55.01953125 C-31.92757286 52.80713673 -35.49691188 49.87898001 -39.1875 46.6875 C-39.79207031 46.22601563 -40.39664063 45.76453125 -41.01953125 45.2890625 C-46.36463102 41.11433446 -51.12419688 35.74603285 -54.1875 29.6875 C-54.2372011 24.33398167 -51.66150058 21.15813922 -48.25 17.3125 C-47.75781982 16.74668213 -47.26563965 16.18086426 -46.75854492 15.59790039 C-34.87111545 2.25191398 -17.91450074 -8.24635748 0 0 Z M-27 12.3125 C-30.97669802 16.63005785 -32.91301911 21.45244133 -33.625 27.25 C-32.84571095 33.37298542 -31.50925844 37.85690584 -26.8125 42.0625 C-21.89942328 45.82919215 -17.72508712 47.22109202 -11.52734375 47.06640625 C-6.0010863 46.17150312 -1.84810294 42.68640022 1.75 38.5625 C5.36803413 33.51917969 5.45454357 28.70665845 4.8125 22.6875 C3.15281527 17.3927449 0.59358012 13.62134462 -4.1875 10.6875 C-12.70515393 6.82950381 -18.86701137 7.6134399 -27 12.3125 Z " fill="#5871F5" transform="translate(71.1875,19.3125)"/>
<path d="M0 0 C6.69152116 6.88628477 8.42080805 13.56910197 8.36132812 22.97436523 C8.1461531 31.08516516 6.02527011 35.3100773 0.25 40.8125 C-7.90973659 47.35822276 -15.67671941 47.84150737 -26 47 C-33.05112075 45.83357019 -38.41697747 42.47272893 -43 37 C-47.8145593 29.28314299 -48.43928027 20.21464063 -46.41015625 11.453125 C-43.82136016 4.53376217 -38.21565737 -0.97074516 -31.58984375 -4.16015625 C-21.0581403 -7.57541453 -9.04324238 -6.65569557 0 0 Z M-27 10 C-30.78394058 14.24093823 -31.13639226 18.45906425 -31 24 C-30.21129877 27.78858271 -28.74686572 30.33849036 -25.8125 32.9375 C-22.09009293 34.34374267 -18.92775099 34.72353308 -15 34 C-11.42675393 31.82498065 -9.56805829 29.83379891 -8 26 C-7.42641256 21.41874965 -7.41805593 17.30244625 -9.3125 13.0625 C-9.869375 12.381875 -10.42625 11.70125 -11 11 C-11.4125 10.4225 -11.825 9.845 -12.25 9.25 C-17.27387183 5.66152012 -22.17822218 6.82201007 -27 10 Z " fill="#5671FA" transform="translate(391,30)"/>
<path d="M0 0 C3.88512094 3.73002629 5.92639455 6.67594242 7.6875 11.8125 C7.6875 16.1025 7.6875 20.3925 7.6875 24.8125 C-3.8625 24.8125 -15.4125 24.8125 -27.3125 24.8125 C-24.8922509 30.44356761 -24.8922509 30.44356761 -22.3125 32.8125 C-16.68986327 34.07426243 -16.68986327 34.07426243 -11.375 32.4375 C-9.43680473 30.97607731 -9.43680473 30.97607731 -8.3125 29.8125 C-5.96262738 29.57722227 -3.60693961 29.39863583 -1.25 29.25 C0.04035156 29.16621094 1.33070313 29.08242188 2.66015625 28.99609375 C3.65917969 28.93550781 4.65820312 28.87492187 5.6875 28.8125 C6.52317096 31.1723507 6.84186935 32.38819518 5.97265625 34.77734375 C2.13626915 40.96704178 -2.39034094 44.50511365 -9.3125 46.8125 C-19.05544158 47.45625218 -26.21041969 47.11384608 -34.5 41.75 C-40.44064649 36.40991067 -42.95620732 28.35523164 -43.5625 20.625 C-42.96541062 11.51938698 -40.16835491 4.93329418 -33.3125 -1.1875 C-23.17812501 -8.77179365 -9.63341893 -7.84282062 0 0 Z M-26.3125 11.8125 C-26.6425 13.1325 -26.9725 14.4525 -27.3125 15.8125 C-21.0425 15.8125 -14.7725 15.8125 -8.3125 15.8125 C-8.7303599 10.19006883 -8.7303599 10.19006883 -10.875 7.9375 C-17.48101732 4.88856893 -22.04815978 6.12671303 -26.3125 11.8125 Z " fill="#5771F6" transform="translate(244.3125,30.1875)"/>
<path d="M0 0 C0 3.96 0 7.92 0 12 C-3.02734375 12.5859375 -6.0546875 13.171875 -9.08203125 13.7578125 C-13.00235595 15.42670574 -13.42593127 17.10241448 -15 21 C-15.49586098 24.27662529 -15.49586098 24.27662529 -15.51171875 27.7109375 C-15.54716797 28.95488281 -15.58261719 30.19882812 -15.61914062 31.48046875 C-15.64169922 32.76566406 -15.66425781 34.05085938 -15.6875 35.375 C-15.72166016 36.68339844 -15.75582031 37.99179687 -15.79101562 39.33984375 C-15.87327754 42.55981025 -15.94250263 45.77951179 -16 49 C-21 50 -21 50 -32 49 C-32 32.83 -32 16.66 -32 0 C-27.71 0 -23.42 0 -19 0 C-18.67 1.98 -18.34 3.96 -18 6 C-17.154375 5.21625 -16.30875 4.4325 -15.4375 3.625 C-10.46166301 -0.50588354 -6.33889034 -1.26777807 0 0 Z " fill="#5771FB" transform="translate(469,26)"/>
<path d="M0 0 C7.59 0 15.18 0 23 0 C23 16.17 23 32.34 23 49 C17.72 49 12.44 49 7 49 C7 36.46 7 23.92 7 11 C4.69 11 2.38 11 0 11 C0 7.37 0 3.74 0 0 Z " fill="#5A73F5" transform="translate(403,26)"/>
<path d="M0 0 C0 3.96 0 7.92 0 12 C-3.02734375 12.5859375 -6.0546875 13.171875 -9.08203125 13.7578125 C-13.00235595 15.42670574 -13.42593127 17.10241448 -15 21 C-15.49586098 24.27662529 -15.49586098 24.27662529 -15.51171875 27.7109375 C-15.54716797 28.95488281 -15.58261719 30.19882812 -15.61914062 31.48046875 C-15.64169922 32.76566406 -15.66425781 34.05085938 -15.6875 35.375 C-15.72166016 36.68339844 -15.75582031 37.99179687 -15.79101562 39.33984375 C-15.87327754 42.55981025 -15.94250263 45.77951179 -16 49 C-21 50 -21 50 -32 49 C-32 32.83 -32 16.66 -32 0 C-27.71 0 -23.42 0 -19 0 C-18.67 1.98 -18.34 3.96 -18 6 C-17.154375 5.21625 -16.30875 4.4325 -15.4375 3.625 C-10.46166301 -0.50588354 -6.33889034 -1.26777807 0 0 Z M-31 1 C-31.02464347 7.53279339 -31.04283291 14.06555998 -31.05493164 20.59838867 C-31.05997317 22.82267732 -31.06680623 25.04696263 -31.07543945 27.27124023 C-31.08751298 30.46078309 -31.09322996 33.65028229 -31.09765625 36.83984375 C-31.10281754 37.84087631 -31.10797882 38.84190887 -31.11329651 39.87327576 C-31.11337204 40.79415482 -31.11344757 41.71503387 -31.11352539 42.66381836 C-31.115746 43.47878281 -31.11796661 44.29374725 -31.12025452 45.13340759 C-31.20528245 47.01477856 -31.20528245 47.01477856 -30 48 C-27.97591245 47.90997602 -25.95455713 47.75358962 -23.9375 47.5625 C-22.28041016 47.40974609 -22.28041016 47.40974609 -20.58984375 47.25390625 C-19.73519531 47.17011719 -18.88054687 47.08632812 -18 47 C-17.78272428 43.06810858 -17.58591644 39.1357768 -17.40795898 35.2019043 C-17.31339215 33.20632631 -17.20267019 31.21153532 -17.09179688 29.21679688 C-17.00961914 27.33637695 -17.00961914 27.33637695 -16.92578125 25.41796875 C-16.86817627 24.26063232 -16.81057129 23.1032959 -16.7512207 21.91088867 C-17.03550606 18.58455474 -17.57763614 18.0971104 -20 16 C-20.37644848 13.37060795 -20.60133087 10.94927528 -20.6875 8.3125 C-20.73874023 7.2596582 -20.73874023 7.2596582 -20.79101562 6.18554688 C-20.87329947 4.45758613 -20.9383324 2.72881928 -21 1 C-24.3 1 -27.6 1 -31 1 Z " fill="#5973FA" transform="translate(469,26)"/>
<path d="M0 0 C3.54103223 3.0021795 5.74201336 5.108098 6.375 9.75 C5.8528401 14.2753858 4.15770622 15.7671103 1 19 C-2.23752415 20.61876208 -5.50063034 20.57132566 -9 20 C-12.60185638 18.21064094 -14.65271868 15.93970239 -16.0625 12.125 C-15.98041379 8.02068933 -15.07239574 5.5431282 -13 2 C-8.52732607 -1.25285376 -5.2750801 -1.53456876 0 0 Z " fill="#5872F4" transform="translate(62,37)"/>
<path d="M0 0 C0.886875 0.15984375 1.77375 0.3196875 2.6875 0.484375 C5 1.25 5 1.25 7 4.25 C7.47609586 7.90006827 7.21601636 9.81796727 5.5625 13.125 C2.28958685 15.8391231 0.27229284 15.86368326 -3.875 15.59765625 C-6.79819203 15.11941344 -8.16548462 14.61958236 -10 12.25 C-11 8.875 -11 8.875 -11 5.25 C-7.76265032 0.11489361 -5.85072645 -1.1225231 0 0 Z " fill="#5572FA" transform="translate(418,6.75)"/>
<path d="M0 0 C4.29 0 8.58 0 13 0 C13.66 1.32 14.32 2.64 15 4 C15.99 3.01 16.98 2.02 18 1 C18.66 1.33 19.32 1.66 20 2 C18.1875 4 18.1875 4 16 6 C15.01 6 14.02 6 13 6 C12.67 4.35 12.34 2.7 12 1 C8.7 1 5.4 1 2 1 C2.33 16.18 2.66 31.36 3 47 C7.29 47.33 11.58 47.66 16 48 C16 37.44 16 26.88 16 16 C16.33 16 16.66 16 17 16 C17 26.89 17 37.78 17 49 C11.39 49 5.78 49 0 49 C0 32.83 0 16.66 0 0 Z " fill="#6578D4" transform="translate(117,26)"/>
<path d="M0 0 C0.99 0.495 0.99 0.495 2 1 C2 16.18 2 31.36 2 47 C5.96 47 9.92 47 14 47 C13.94779297 44.18082031 13.94779297 44.18082031 13.89453125 41.3046875 C13.8663886 38.82813395 13.83908895 36.35157072 13.8125 33.875 C13.78736328 32.6375 13.76222656 31.4 13.73632812 30.125 C13.72666016 28.92617188 13.71699219 27.72734375 13.70703125 26.4921875 C13.68346558 24.84259033 13.68346558 24.84259033 13.65942383 23.15966797 C14.0540152 19.49887833 15.05964452 17.11571067 17 14 C19.6875 13.125 19.6875 13.125 22 13 C21.360625 13.763125 20.72125 14.52625 20.0625 15.3125 C16.9584928 19.35711544 16.84105818 22.44659167 16.68359375 27.41796875 C16.64169922 28.67158203 16.59980469 29.92519531 16.55664062 31.21679688 C16.51732422 32.52712891 16.47800781 33.83746094 16.4375 35.1875 C16.39429008 36.52279978 16.350675 37.85808652 16.30664062 39.19335938 C16.20043498 42.46213297 16.09839003 45.73098333 16 49 C11 50 11 50 0 49 C0 32.83 0 16.66 0 0 Z " fill="#6477D3" transform="translate(437,26)"/>
<path d="M0 0 C0.99 0.33 1.98 0.66 3 1 C-1.75 4 -1.75 4 -4 4 C-4.66 5.65 -5.32 7.3 -6 9 C-6.99 9 -7.98 9 -9 9 C-9.33 6.69 -9.66 4.38 -10 2 C-13.3 2 -16.6 2 -20 2 C-20 17.51 -20 33.02 -20 49 C-13.565 48.505 -13.565 48.505 -7 48 C-6.67 38.76 -6.34 29.52 -6 20 C-5.67 20 -5.34 20 -5 20 C-5 29.9 -5 39.8 -5 50 C-10.28 50 -15.56 50 -21 50 C-21.16852354 44.30764916 -21.32898066 38.61514726 -21.48217773 32.92236328 C-21.53533392 30.9883828 -21.59064011 29.0544601 -21.64819336 27.12060547 C-21.73084628 24.33053037 -21.805599 21.54033445 -21.87890625 18.75 C-21.91945885 17.466698 -21.91945885 17.466698 -21.96083069 16.1574707 C-22.08753186 10.98605653 -21.76612498 6.11781802 -21 1 C-16.71 1 -12.42 1 -8 1 C-7.67 2.32 -7.34 3.64 -7 5 C-6.21625 4.360625 -5.4325 3.72125 -4.625 3.0625 C-2 1 -2 1 0 0 Z " fill="#677AD6" transform="translate(281,25)"/>
<path d="M0 0 C4.05366978 4.05366978 3.3125 9.50378016 3.3125 14.87670898 C3.1733829 21.877619 1.90789269 25.83477167 -2.765625 30.921875 C-10.39582376 38.19159193 -17.15276688 39.52090824 -27.5703125 39.296875 C-31.96696465 38.91629919 -36.08933328 38.11544751 -40 36 C-40.33 35.34 -40.66 34.68 -41 34 C-38.69 34.33 -36.38 34.66 -34 35 C-34 35.66 -34 36.32 -34 37 C-30.9570141 36.91262714 -27.91681634 36.80569374 -24.875 36.6875 C-24.0190625 36.66494141 -23.163125 36.64238281 -22.28125 36.61914062 C-17.16926858 36.40286449 -13.41548184 35.85050094 -9 33 C-7.59533047 30.94906855 -7.59533047 30.94906855 -7 29 C-5.68 29 -4.36 29 -3 29 C-3 28.34 -3 27.68 -3 27 C-2.34 27 -1.68 27 -1 27 C0.20484722 21.36473035 0.1129643 15.85463885 0.0625 10.125 C0.05798828 9.15046875 0.05347656 8.1759375 0.04882812 7.171875 C0.03710906 4.78118566 0.02070219 2.3906256 0 0 Z " fill="#6173DD" transform="translate(396,38)"/>
<path d="M0 0 C2.67137573 2.37455621 2.4336778 5.07340025 2.6875 8.5 C0.3775 8.5 -1.9325 8.5 -4.3125 8.5 C-4.6425 9.49 -4.9725 10.48 -5.3125 11.5 C-7.6225 11.17 -9.9325 10.84 -12.3125 10.5 C-11.6525 10.17 -10.9925 9.84 -10.3125 9.5 C-10.6425 8.51 -10.9725 7.52 -11.3125 6.5 C-10.8659013 3.55244857 -10.47545027 2.66295027 -8.3125 0.5 C-5.29755416 -0.28650761 -3.05981957 -0.66158261 0 0 Z " fill="#5470FA" transform="translate(464.3125,28.5)"/>
<path d="M0 0 C2.97 0.33 5.94 0.66 9 1 C9 1.66 9 2.32 9 3 C7.63875 2.9071875 7.63875 2.9071875 6.25 2.8125 C2.64659694 3.02038864 1.43556171 3.38402631 -1 6 C-2.0268639 9.85705317 -2.18927606 13.6359224 -2.31640625 17.61328125 C-2.35830078 18.86044922 -2.40019531 20.10761719 -2.44335938 21.39257812 C-2.48267578 22.68615234 -2.52199219 23.97972656 -2.5625 25.3125 C-2.60568359 26.62541016 -2.64886719 27.93832031 -2.69335938 29.29101562 C-2.79927168 32.52722482 -2.90012419 35.76359889 -3 39 C-8.28 39 -13.56 39 -19 39 C-19.33 27.78 -19.66 16.56 -20 5 C-19.01 5.495 -19.01 5.495 -18 6 C-18 16.56 -18 27.12 -18 38 C-13.38 38 -8.76 38 -4 38 C-4.04640625 35.75960937 -4.0928125 33.51921875 -4.140625 31.2109375 C-4.1718738 29.02655296 -4.19613098 26.84219389 -4.21972656 24.65771484 C-4.23976791 23.14653264 -4.26700905 21.63542728 -4.30175781 20.12451172 C-4.35061109 17.94479357 -4.37304224 15.76610569 -4.390625 13.5859375 C-4.41157227 12.2767334 -4.43251953 10.9675293 -4.45410156 9.61865234 C-3.90304488 5.22738239 -2.68513255 3.43306739 0 0 Z " fill="#6679D5" transform="translate(309,36)"/>
<path d="M0 0 C0.886875 0.15984375 1.77375 0.3196875 2.6875 0.484375 C5 1.25 5 1.25 7 4.25 C7.47609586 7.90006827 7.21601636 9.81796727 5.5625 13.125 C2.28958685 15.8391231 0.27229284 15.86368326 -3.875 15.59765625 C-6.79819203 15.11941344 -8.16548462 14.61958236 -10 12.25 C-11 8.875 -11 8.875 -11 5.25 C-7.76265032 0.11489361 -5.85072645 -1.1225231 0 0 Z M-6 4.25 C-6.99 4.91 -7.98 5.57 -9 6.25 C-9.2502157 9.33365871 -9.2502157 9.33365871 -9 12.25 C-4.89776415 13.26540112 -4.89776415 13.26540112 -1 12.25 C-1 12.91 -1 13.57 -1 14.25 C0.94074861 13.97382467 0.94074861 13.97382467 3 13.25 C5.16617415 10.00073878 5.21335669 9.6514758 4.625 6.0625 C4.41875 4.804375 4.2125 3.54625 4 2.25 C-0.45576541 0.84961659 -2.24927202 1.58500907 -6 4.25 Z " fill="#6778E5" transform="translate(418,6.75)"/>
<path d="M0 0 C0 0.66 0 1.32 0 2 C-0.99 2 -1.98 2 -3 2 C-3.10441406 2.59167969 -3.20882812 3.18335938 -3.31640625 3.79296875 C-4.10075855 6.32530619 -5.09926093 7.42931621 -6.9375 9.3125 C-11.3504607 14.2863406 -12.30511423 19.26090311 -12.13671875 25.8671875 C-11.89776689 29.59483658 -11.48009377 33.2964195 -11 37 C-14.52777799 33.47222201 -14.86784479 28.4272763 -15.3125 23.625 C-14.52890668 14.5353175 -11.72855163 8.23920242 -5 2 C-2 0 -2 0 0 0 Z " fill="#687AE2" transform="translate(216,27)"/>
<path d="M0 0 C0 3.96 0 7.92 0 12 C-4.455 12.495 -4.455 12.495 -9 13 C-9 12.34 -9 11.68 -9 11 C-6.69 11 -4.38 11 -2 11 C-2.77030122 7.51190809 -2.77030122 7.51190809 -4 4 C-8.00871509 2.66376164 -10.06052898 3.61772947 -14 5 C-16.35959458 6.49486846 -16.35959458 6.49486846 -18 8 C-16.49048817 3.77336686 -13.8148346 2.16921968 -10 0 C-5.944631 -1.28584871 -4.44133645 -0.88826729 0 0 Z " fill="#6577DA" transform="translate(469,26)"/>
<path d="M0 0 C0.33 0.99 0.66 1.98 1 3 C0.01 4.485 0.01 4.485 -1 6 C-1 7.32 -1 8.64 -1 10 C-1.66 10 -2.32 10 -3 10 C-3.05428973 12.22889496 -3.09292338 14.45817471 -3.125 16.6875 C-3.15980469 18.54955078 -3.15980469 18.54955078 -3.1953125 20.44921875 C-3.00880809 23.8398689 -2.3549817 25.94036391 -1 29 C-1.375 31.3125 -1.375 31.3125 -2 33 C-6.52422007 25.91861207 -6.72810492 19.3101042 -6 11 C-4.73072089 6.71693495 -3.17176591 3.17176591 0 0 Z " fill="#6679DE" transform="translate(350,33)"/>
<path d="M0 0 C4.0578354 4.0578354 3.29312432 9.48943557 3.32568359 14.86352539 C3.23721275 20.6834547 2.29222024 24.25532966 -1 29 C-1.66 29.33 -2.32 29.66 -3 30 C-3 29.01 -3 28.02 -3 27 C-2.34 27 -1.68 27 -1 27 C0.20484722 21.36473035 0.1129643 15.85463885 0.0625 10.125 C0.05798828 9.15046875 0.05347656 8.1759375 0.04882812 7.171875 C0.03710906 4.78118566 0.02070219 2.3906256 0 0 Z " fill="#6C7FE0" transform="translate(396,38)"/>
<path d="M0 0 C0.99 0.33 1.98 0.66 3 1 C4.29676812 5.61073111 3.71109139 9.33840089 3 14 C2.34 13.01 1.68 12.02 1 11 C-0.7399066 8.65781804 -1.94871195 7.17954096 -4.8984375 6.67578125 C-8.72219337 6.58338566 -11.73235982 6.82157322 -15 9 C-14.67 7.68 -14.34 6.36 -14 5 C-9.71 5 -5.42 5 -1 5 C-0.67 3.35 -0.34 1.7 0 0 Z " fill="#5E74EB" transform="translate(234,31)"/>
<path d="M0 0 C4.866909 0.45273572 7.4419325 1.64525064 11 5 C11.33 5.66 11.66 6.32 12 7 C12.40992188 6.566875 12.81984375 6.13375 13.2421875 5.6875 C13.78101563 5.130625 14.31984375 4.57375 14.875 4 C15.40867187 3.443125 15.94234375 2.88625 16.4921875 2.3125 C18 1 18 1 20 1 C19.30058404 4.14737182 18.23921302 7.02588876 17 10 C13.6875 9.8125 13.6875 9.8125 10 9 C8.96210419 7.35666496 7.96432076 5.68756133 7 4 C4.72086389 2.68808192 2.49134876 1.89312503 0 1 C0 0.67 0 0.34 0 0 Z " fill="#6478E1" transform="translate(291,25)"/>
<path d="M0 0 C3.15282724 1.42089299 5.53777964 3.15031851 8.125 5.4375 C8.80820313 6.03433594 9.49140625 6.63117187 10.1953125 7.24609375 C12 9 12 9 14 12 C12.68 12.33 11.36 12.66 10 13 C10 12.01 10 11.02 10 10 C9.34 10 8.68 10 8 10 C8 9.01 8 8.02 8 7 C5.03 6.67 2.06 6.34 -1 6 C-0.67 4.02 -0.34 2.04 0 0 Z " fill="#5B70EA" transform="translate(75,23)"/>
<path d="M0 0 C7.86246031 0.92499533 12.3492914 6.1288927 17 12 C16.67 12.66 16.34 13.32 16 14 C15.34 14 14.68 14 14 14 C14 13.34 14 12.68 14 12 C13.34 12 12.68 12 12 12 C11.67 10.35 11.34 8.7 11 7 C10.34 7 9.68 7 9 7 C9 6.34 9 5.68 9 5 C7.68 4.67 6.36 4.34 5 4 C5 4.66 5 5.32 5 6 C4.34 6 3.68 6 3 6 C2.01 4.02 1.02 2.04 0 0 Z " fill="#6277E4" transform="translate(233,25)"/>
<path d="M0 0 C1.65 0 3.3 0 5 0 C5.80947706 3.56817487 6.16206411 6.90481856 6.1875 10.5625 C6.20167969 11.49191406 6.21585937 12.42132813 6.23046875 13.37890625 C5.99341557 16.07488389 5.37270136 17.69407875 4 20 C3.34 20 2.68 20 2 20 C2.15984375 19.44054687 2.3196875 18.88109375 2.484375 18.3046875 C3.95448113 11.73375858 3.64452796 5.77050261 0 0 Z " fill="#6478E6" transform="translate(379,40)"/>
<path d="M0 0 C0.66 0.66 1.32 1.32 2 2 C-1.3 2 -4.6 2 -8 2 C-8.66 3.32 -9.32 4.64 -10 6 C-10.66 6 -11.32 6 -12 6 C-12.66 7.32 -13.32 8.64 -14 10 C-14.66 9.67 -15.32 9.34 -16 9 C-13.82687927 2.60136674 -13.82687927 2.60136674 -10.25 0 C-6.37260867 -1.19304349 -3.91426498 -0.97856625 0 0 Z " fill="#6476D5" transform="translate(62,37)"/>
<path d="M0 0 C-1.98 0.33 -3.96 0.66 -6 1 C-6 2.32 -6 3.64 -6 5 C-6.66 5 -7.32 5 -8 5 C-8 4.34 -8 3.68 -8 3 C-8.99 3.495 -8.99 3.495 -10 4 C-10 4.66 -10 5.32 -10 6 C-12.97 6.66 -15.94 7.32 -19 8 C-14.58124086 2.84478101 -6.84722299 -2.12500024 0 0 Z " fill="#5D74E3" transform="translate(54,18)"/>
<path d="M0 0 C0.66 0 1.32 0 2 0 C2 0.66 2 1.32 2 2 C4.64 2.33 7.28 2.66 10 3 C9.4225 3.2475 8.845 3.495 8.25 3.75 C5.68454238 5.17525423 4.00051002 6.86612265 2 9 C1.34 9.66 0.68 10.32 0 11 C-0.19406478 9.35492782 -0.38007935 7.70890406 -0.5625 6.0625 C-0.66691406 5.14597656 -0.77132813 4.22945312 -0.87890625 3.28515625 C-0.91886719 2.53105469 -0.95882813 1.77695312 -1 1 C-0.67 0.67 -0.34 0.34 0 0 Z " fill="#5D75ED" transform="translate(275,34)"/>
<path d="M0 0 C3.63 0 7.26 0 11 0 C10.95117188 3.7109375 10.95117188 3.7109375 10.90234375 7.421875 C10.99173802 9.7818838 11.33087179 11.74498524 12 14 C11.01 14 10.02 14 9 14 C8.80448662 12.39679026 8.61888017 10.79237014 8.4375 9.1875 C8.28087891 7.84751953 8.28087891 7.84751953 8.12109375 6.48046875 C8 4 8 4 9 1 C6.03 1 3.06 1 0 1 C0 0.67 0 0.34 0 0 Z " fill="#6A7FEF" transform="translate(439,26)"/>
<path d="M0 0 C1.2841212 2.5682424 0.81933504 3.8108781 0.375 6.625 C-0.25140948 11.94561387 0.76810965 15.17911685 3 20 C2.01 20 1.02 20 0 20 C-2.42457025 16.36314463 -2.29768407 13.63767221 -2.25 9.4375 C-2.25773437 8.75236328 -2.26546875 8.06722656 -2.2734375 7.36132812 C-2.2533867 2.2533867 -2.2533867 2.2533867 0 0 Z " fill="#6978DC" transform="translate(361,42)"/>
<path d="M0 0 C5.62541841 0.45003347 8.61487125 1.68441485 13 5 C12.01 5 11.02 5 10 5 C8.2365625 5.0309375 8.2365625 5.0309375 6.4375 5.0625 C3 5 3 5 1 4 C0.375 1.9375 0.375 1.9375 0 0 Z " fill="#6073E7" transform="translate(377,25)"/>
<path d="M0 0 C1.65322266 0.01740234 1.65322266 0.01740234 3.33984375 0.03515625 C4.99693359 0.04869141 4.99693359 0.04869141 6.6875 0.0625 C7.54214844 0.07410156 8.39679687 0.08570312 9.27734375 0.09765625 C6.33629009 2.05835869 3.40521727 3.5075336 0.21484375 5 C-1.79783153 6.14024547 -3.17065868 7.39530892 -4.72265625 9.09765625 C-3.72665753 0.13366777 -3.72665753 0.13366777 0 0 Z " fill="#5D72DD" transform="translate(45.72265625,26.90234375)"/>
<path d="M0 0 C4.21779303 1.50635465 5.7747674 4.24012422 8 8 C9.28317892 11.84953676 9.06643637 14.94738135 9 19 C8.67 19 8.34 19 8 19 C7.87625 17.4840625 7.87625 17.4840625 7.75 15.9375 C7.16227462 11.62166584 5.24385159 8.69149778 3 5 C3 4.34 3 3.68 3 3 C2.01 2.67 1.02 2.34 0 2 C0 1.34 0 0.68 0 0 Z " fill="#6179D9" transform="translate(185,27)"/>
<path d="M0 0 C0.66 0 1.32 0 2 0 C1.34 1.98 0.68 3.96 0 6 C6.6 6 13.2 6 20 6 C20 6.33 20 6.66 20 7 C13.07 7 6.14 7 -1 7 C-1 1 -1 1 0 0 Z " fill="#687AE5" transform="translate(217,40)"/>
<path d="M0 0 C0.33 0 0.66 0 1 0 C1.04898437 0.73605469 1.09796875 1.47210938 1.1484375 2.23046875 C1.22320312 3.20628906 1.29796875 4.18210937 1.375 5.1875 C1.44460938 6.15042969 1.51421875 7.11335938 1.5859375 8.10546875 C2.00250117 11.01748463 2.88798979 13.29410849 4 16 C3.625 18.3125 3.625 18.3125 3 20 C-0.11713854 15.78654502 -0.37676791 12.2589095 -0.1875 7.1875 C-0.16719727 6.14819336 -0.16719727 6.14819336 -0.14648438 5.08789062 C-0.11138845 3.39158735 -0.05758943 1.69568864 0 0 Z " fill="#697DEC" transform="translate(345,46)"/>
<path d="M0 0 C-4.75 3 -4.75 3 -7 3 C-7.66 4.65 -8.32 6.3 -9 8 C-9.99 8 -10.98 8 -12 8 C-12 7.34 -12 6.68 -12 6 C-11.34 6 -10.68 6 -10 6 C-9.773125 5.401875 -9.54625 4.80375 -9.3125 4.1875 C-6.97261664 0.2876944 -4.37899641 -1.45966547 0 0 Z " fill="#6478E4" transform="translate(284,26)"/>
<path d="M0 0 C-0.639375 0.309375 -1.27875 0.61875 -1.9375 0.9375 C-3.93610821 1.8345163 -3.93610821 1.8345163 -5 3 C-6.68183948 3.23287008 -8.3712416 3.41264166 -10.0625 3.5625 C-10.98160156 3.64628906 -11.90070313 3.73007812 -12.84765625 3.81640625 C-13.55792969 3.87699219 -14.26820313 3.93757813 -15 4 C-15 3.34 -15 2.68 -15 2 C-9.77487721 0.53329887 -5.4185766 -0.22577402 0 0 Z " fill="#5B73E0" transform="translate(375,24)"/>
<path d="M0 0 C-0.33 0.99 -0.66 1.98 -1 3 C-1.515625 2.79375 -2.03125 2.5875 -2.5625 2.375 C-6.97941251 1.695475 -10.78233678 3.18822452 -14.4375 5.625 C-14.953125 6.07875 -15.46875 6.5325 -16 7 C-14.84826645 4.53199953 -13.95216435 2.95216435 -12 1 C-7.96274685 0.08244247 -4.12998306 -0.09833293 0 0 Z " fill="#5F75E7" transform="translate(467,27)"/>
<path d="M0 0 C1.32 0.33 2.64 0.66 4 1 C1.69 3.64 -0.62 6.28 -3 9 C-3.33 8.01 -3.66 7.02 -4 6 C-3.34 6 -2.68 6 -2 6 C-2 4.68 -2 3.36 -2 2 C-1.34 2 -0.68 2 0 2 C0 1.34 0 0.68 0 0 Z " fill="#5C73DE" transform="translate(91,51)"/>
<path d="M0 0 C0.268125 0.763125 0.53625 1.52625 0.8125 2.3125 C1.94424112 4.87380884 2.91223401 6.19692938 5 8 C0.56541027 6.6062718 -1.87378374 4.39417765 -5 1 C-2 0 -2 0 0 0 Z " fill="#5F72DA" transform="translate(38,65)"/>
<path d="M0 0 C0.66 0 1.32 0 2 0 C2 0.66 2 1.32 2 2 C2.99 2.33 3.98 2.66 5 3 C5.69937532 4.31647119 6.36729133 5.65022151 7 7 C7.66 7.33 8.32 7.66 9 8 C9 8.99 9 9.98 9 11 C8.34 11 7.68 11 7 11 C5.2734375 8.84765625 5.2734375 8.84765625 3.375 6.0625 C2.74335938 5.14597656 2.11171875 4.22945312 1.4609375 3.28515625 C0 1 0 1 0 0 Z " fill="#6F7DE2" transform="translate(18,49)"/>
<path d="M0 0 C-0.66 1.32 -1.32 2.64 -2 4 C-2.66 4 -3.32 4 -4 4 C-4.66 5.32 -5.32 6.64 -6 8 C-6.66 7.67 -7.32 7.34 -8 7 C-6.53112033 2.34854772 -6.53112033 2.34854772 -4 0.6875 C-2 0 -2 0 0 0 Z " fill="#6277EB" transform="translate(54,39)"/>
<path d="M0 0 C2.97 0.33 5.94 0.66 9 1 C9 1.66 9 2.32 9 3 C7.63875 2.938125 7.63875 2.938125 6.25 2.875 C3.1217954 2.99531556 1.61385994 3.3914708 -1 5 C-0.67 3.35 -0.34 1.7 0 0 Z " fill="#5C6FDF" transform="translate(309,36)"/>
<path d="M0 0 C0.33 0 0.66 0 1 0 C1 4.29 1 8.58 1 13 C0.01 13.33 -0.98 13.66 -2 14 C-1.34 9.38 -0.68 4.76 0 0 Z " fill="#6B77D7" transform="translate(383,46)"/>
<path d="M0 0 C2.00720923 0.28674418 4.0085944 0.61866701 6 1 C1.25 4.875 1.25 4.875 -1 6 C-1.042721 4.33388095 -1.04063832 2.66617115 -1 1 C-0.67 0.67 -0.34 0.34 0 0 Z " fill="#6276E5" transform="translate(363,36)"/>
<path d="M0 0 C2.31 1.98 4.62 3.96 7 6 C5.02 6.99 5.02 6.99 3 8 C3 7.01 3 6.02 3 5 C2.34 5 1.68 5 1 5 C0.67 3.35 0.34 1.7 0 0 Z " fill="#5D74DD" transform="translate(82,28)"/>
<path d="M0 0 C0.66 0.33 1.32 0.66 2 1 C0.8125 3.5 0.8125 3.5 -1 6 C-3.6875 6.3125 -3.6875 6.3125 -6 6 C-4 4 -2 2 0 0 Z " fill="#6176DF" transform="translate(357,27)"/>
<path d="M0 0 C2.64 0 5.28 0 8 0 C8 0.66 8 1.32 8 2 C8.99 2.33 9.98 2.66 11 3 C3.49230769 3.36923077 3.49230769 3.36923077 1 1.5 C0.67 1.005 0.34 0.51 0 0 Z " fill="#5D72DC" transform="translate(409,19)"/>
<path d="M0 0 C0.94875 0.04125 1.8975 0.0825 2.875 0.125 C3.205 1.115 3.535 2.105 3.875 3.125 C0.905 2.795 -2.065 2.465 -5.125 2.125 C-3.125 0.125 -3.125 0.125 0 0 Z " fill="#5E70E2" transform="translate(221.125,24.875)"/>
<path d="M0 0 C1.2380014 3.57644848 0.74926071 6.33694766 0 10 C-2 7 -2 7 -1.6875 3.875 C-1 1 -1 1 0 0 Z " fill="#6479D4" transform="translate(409,9)"/>
<path d="" fill="#FFFFFF" transform="translate(0,0)"/>
<path d="" fill="#FFFFFF" transform="translate(0,0)"/>
<path d="" fill="#FFFFFF" transform="translate(0,0)"/>
<path d="" fill="#FFFFFF" transform="translate(0,0)"/>
<path d="" fill="#FFFFFF" transform="translate(0,0)"/>
<path d="" fill="#FFFFFF" transform="translate(0,0)"/>
<path d="" fill="#FFFFFF" transform="translate(0,0)"/>
<path d="" fill="#FFFFFF" transform="translate(0,0)"/>
<path d="" fill="#FFFFFF" transform="translate(0,0)"/>
<path d="" fill="#FFFFFF" transform="translate(0,0)"/>
<path d="" fill="#FFFFFF" transform="translate(0,0)"/>
<path d="" fill="#FFFFFF" transform="translate(0,0)"/>
<path d="" fill="#FFFFFF" transform="translate(0,0)"/>
<path d="" fill="#FFFFFF" transform="translate(0,0)"/>
<path d="" fill="#FFFFFF" transform="translate(0,0)"/>
<path d="" fill="#FFFFFF" transform="translate(0,0)"/>
<path d="" fill="#FFFFFF" transform="translate(0,0)"/>
<path d="" fill="#FFFFFF" transform="translate(0,0)"/>
<path d="" fill="#FFFFFF" transform="translate(0,0)"/>
<path d="" fill="#FFFFFF" transform="translate(0,0)"/>
<path d="" fill="#FFFFFF" transform="translate(0,0)"/>
<path d="" fill="#FFFFFF" transform="translate(0,0)"/>
<path d="" fill="#FFFFFF" transform="translate(0,0)"/>
<path d="" fill="#FFFFFF" transform="translate(0,0)"/>
<path d="" fill="#FFFFFF" transform="translate(0,0)"/>
<path d="" fill="#FFFFFF" transform="translate(0,0)"/>
<path d="" fill="#FFFFFF" transform="translate(0,0)"/>
<path d="" fill="#FFFFFF" transform="translate(0,0)"/>
<path d="" fill="#FFFFFF" transform="translate(0,0)"/>
<path d="" fill="#FFFFFF" transform="translate(0,0)"/>
<path d="" fill="#FFFFFF" transform="translate(0,0)"/>
<path d="" fill="#FFFFFF" transform="translate(0,0)"/>
<path d="" fill="#FFFFFF" transform="translate(0,0)"/>
<path d="" fill="#FFFFFF" transform="translate(0,0)"/>
<path d="" fill="#FFFFFF" transform="translate(0,0)"/>
<path d="" fill="#FFFFFF" transform="translate(0,0)"/>
<path d="" fill="#FFFFFF" transform="translate(0,0)"/>
<path d="" fill="#FFFFFF" transform="translate(0,0)"/>
<path d="" fill="#FFFFFF" transform="translate(0,0)"/>
<path d="" fill="#FFFFFF" transform="translate(0,0)"/>
<path d="" fill="#FF00FF" transform="translate(0,0)"/>
<path d="" fill="#FFFFFF" transform="translate(0,0)"/>
<path d="" fill="#FFFFFF" transform="translate(0,0)"/>
<path d="" fill="#FFFFFF" transform="translate(0,0)"/>
<path d="" fill="#FFFFFF" transform="translate(0,0)"/>
<path d="" fill="#FFFFFF" transform="translate(0,0)"/>
<path d="" fill="#FFFFFF" transform="translate(0,0)"/>
<path d="" fill="#FFFFFF" transform="translate(0,0)"/>
</svg>
